<svg width="20" height="20" viewBox="0 0 20 20" fill="none" xmlns="http://www.w3.org/2000/svg">
<path d="M18.3333 12.5C18.3333 15.725 15.725 18.3333 12.5 18.3333L13.375 16.875" stroke="#282828" stroke-linecap="round" stroke-linejoin="round"/>
<path d="M1.66699 7.50001C1.66699 4.27501 4.27533 1.66667 7.50033 1.66667L6.62533 3.12501" stroke="#282828" stroke-linecap="round" stroke-linejoin="round"/>
<path d="M11.8496 2.16667H16.4834C17.2295 2.16668 17.4943 2.27125 17.6123 2.38835C17.7289 2.50409 17.833 2.7629 17.833 3.49968V3.50847H10.5V3.49968C10.5 2.76325 10.6042 2.50417 10.7207 2.38835C10.8387 2.27127 11.1037 2.16671 11.8496 2.16667Z" fill="#282828" stroke="#282828"/>
<path d="M17.833 5.34166V6.91685C17.833 7.6536 17.7289 7.91241 17.6123 8.02818C17.4943 8.14528 17.2295 8.24986 16.4834 8.24986H11.8496C11.1037 8.24983 10.8387 8.14527 10.7207 8.02818C10.6042 7.91233 10.5 7.65325 10.5 6.91685V5.34166H17.833Z" fill="#282828" stroke="#282828"/>
<path d="M3.5166 11.75H8.15039C8.89653 11.75 9.16131 11.8546 9.2793 11.9717C9.39588 12.0874 9.49997 12.3462 9.5 13.083V13.0918H2.16699V13.083C2.16702 12.3466 2.27118 12.0875 2.3877 11.9717C2.50567 11.8546 2.77071 11.75 3.5166 11.75Z" fill="#282828" stroke="#282828"/>
<path d="M2.08366 14.425C1.85033 14.425 1.66699 14.6083 1.66699 14.8417V15.675V16.5C1.66699 17.9667 2.03366 18.3333 3.51699 18.3333H8.15033C9.63366 18.3333 10.0003 17.9667 10.0003 16.5V15.675V14.8417C10.0003 14.6083 9.81699 14.425 9.58366 14.425H2.08366Z" fill="#282828"/>
</svg>
